# xmcd
#
# Track frame offsets: 
#        150
#        11970
#        29645
#        49044
#        66358
#        86807
#        101339
#        116656
#        129599
#        149743
#        157258
#
# Disc length: 2362 seconds
#
# Revision: 0
# Processed by: cddbd v1.5.2PL0 Copyright (c) Steve Scherf et al.
# Submitted via: ExactAudioCopy v0.99pb4
#
DISCID=a709380b
DTITLE=Opensouls - Standing In The Rain
DYEAR=2009
DGENRE=Soul
TTITLE0=Standing In The Rain
TTITLE1=Telephone Song
TTITLE2=Love Turns Wild
TTITLE3=When Ya Gonna Stop
TTITLE4=Walk Away [Warm Love]
TTITLE5=Dollars
TTITLE6=Prayer
TTITLE7=Blind To See
TTITLE8=Leave The Light On
TTITLE9=Spend Some Time
TTITLE10=Hold You Close
EXTD=
EXTT0=
EXTT1=
EXTT2=
EXTT3=
EXTT4=
EXTT5=
EXTT6=
EXTT7=
EXTT8=
EXTT9=
EXTT10=
PLAYORDER=
